<?xml version="1.0" encoding="utf-8"?>
<!-- Generator: Adobe Illustrator 19.1.0, SVG Export Plug-In . SVG Version: 6.00 Build 0)  -->
<svg version="1.1" id="Layer_1" xmlns="http://www.w3.org/2000/svg" xmlns:xlink="http://www.w3.org/1999/xlink" x="0px" y="0px"
	 viewBox="0 0 96.9 96.6" style="enable-background:new 0 0 96.9 96.6;" xml:space="preserve">
<style type="text/css">
	.st0{fill:#FFFFFF;}
</style>
<g>
	<g>
		<path d="M0.5,0.2c31.9,0,63.8,0,95.8,0c0,6.3,0,12.7,0,19.2c-25.7,0-51.2,0-76.7,0c0,6.5,0,12.8,0,19.3c25.6,0,51.1,0,76.7,0
			c0,6.4,0,12.7,0,19.1c-25.6,0-51.1,0-76.7,0c0,12.8,0,25.5,0,38.3c-6.4,0-12.6,0-19,0c0-0.6,0-1.1,0-1.6c0-30.9,0-61.8,0-92.7
			C0.4,1.3,0.5,0.8,0.5,0.2z"/>
		<path class="st0" d="M0.5,0.2c0,0.5-0.1,1-0.1,1.6c0,30.9,0,61.8,0,92.7c0,0.5,0,1,0,1.6c6.4,0,12.7,0,19,0c0-12.8,0-25.5,0-38.3
			c25.6,0,51.2,0,76.7,0c0-6.4,0-12.7,0-19.1c-25.5,0-51,0-76.7,0c0-6.5,0-12.8,0-19.3c25.5,0,51,0,76.7,0c0-6.5,0-12.8,0-19.2
			c0.2,0.1,0.4,0.1,0.5,0.2c0.1,0.3,0,0.6,0,0.8c0,31.7,0,63.4,0,95.2c-32.2,0-64.3,0-96.5,0c0-31.7,0-63.4,0-95.2
			C0.3,1,0.4,0.6,0.5,0.2z"/>
	</g>
</g>
</svg>
